<?xml version="1.0" encoding="UTF-8" standalone="no"?>
<svg
   class="xduoyf"
   width="84"
   height="84"
   viewBox="0 0 84 84"
   fill="none"
   style="width: 26px; height: 26px; margin-left: 20px; margin-top: 20px;"
   version="1.1"
   id="svg141"
   sodipodi:docname="button-vendor.svg"
   inkscape:version="1.2.2 (b0a8486541, 2022-12-01)"
   xmlns:inkscape="http://www.inkscape.org/namespaces/inkscape"
   xmlns:sodipodi="http://sodipodi.sourceforge.net/DTD/sodipodi-0.dtd"
   xmlns="http://www.w3.org/2000/svg"
   xmlns:svg="http://www.w3.org/2000/svg">
  <sodipodi:namedview
     id="namedview143"
     pagecolor="#ffffff"
     bordercolor="#000000"
     borderopacity="0.25"
     inkscape:showpageshadow="2"
     inkscape:pageopacity="0.0"
     inkscape:pagecheckerboard="0"
     inkscape:deskcolor="#d1d1d1"
     showgrid="false"
     inkscape:zoom="9.6309524"
     inkscape:cx="41.948084"
     inkscape:cy="41.948084"
     inkscape:window-width="3440"
     inkscape:window-height="1371"
     inkscape:window-x="0"
     inkscape:window-y="0"
     inkscape:window-maximized="1"
     inkscape:current-layer="g122" />
  <path
     d="M40 78c20.987 0 38-17.013 38-38S60.987 2 40 2 2 19.013 2 40s17.013 38 38 38z"
     fill="#000"
     fill-opacity=".06"
     id="path118" />
  <g
     filter="url(#c84)"
     id="g122">
    <path
       fill-rule="evenodd"
       clip-rule="evenodd"
       d="M 2,40 C 2,60.987 19.013,78 40,78 60.987,78 78,60.987 78,40 78,19.013 60.987,2 40,2 19.013,2 2,19.013 2,40 Z m 38.215,35.462 c 19.466,0 35.247,-15.78 35.247,-35.247 0,-19.466 -15.78,-35.246 -35.247,-35.246 -19.466,0 -35.246,15.78 -35.246,35.246 0,19.466 15.78,35.247 35.246,35.247 z M 18.71,34.905 C 40.792533,3.6226416 44.351142,23.483648 62.105,31.304 c 2.271045,1.968289 0.09657,4.67691 -0.857,7.157 C 50.132922,50.461107 53.819708,65.875742 31.460065,59.942901 27.213486,55.7419 5.8920433,47.800562 18.71,34.905 Z"
       fill="#ffffff"
       id="path120"
       sodipodi:nodetypes="ssssssssssccccc" />
  </g>
  <defs
     id="defs139">
    <filter
       id="c84"
       x="0"
       y="0"
       width="84"
       height="84"
       filterUnits="userSpaceOnUse"
       color-interpolation-filters="sRGB">
      <feFlood
         flood-opacity="0"
         result="BackgroundImageFix"
         id="feFlood124" />
      <feColorMatrix
         in="SourceAlpha"
         values="0 0 0 0 0 0 0 0 0 0 0 0 0 0 0 0 0 0 127 0"
         id="feColorMatrix126" />
      <feOffset
         dx="2"
         dy="2"
         id="feOffset128" />
      <feGaussianBlur
         stdDeviation="2"
         id="feGaussianBlur130" />
      <feColorMatrix
         values="0 0 0 0 0 0 0 0 0 0 0 0 0 0 0 0 0 0 0.5 0"
         id="feColorMatrix132" />
      <feBlend
         in2="BackgroundImageFix"
         result="effect1_dropShadow"
         id="feBlend134" />
      <feBlend
         in="SourceGraphic"
         in2="effect1_dropShadow"
         result="shape"
         id="feBlend136" />
    </filter>
  </defs>
</svg>
