<?xml version="1.0" encoding="UTF-8"?>
<svg width="84" height="84" viewBox="0 0 84 84" fill="none" xmlns="http://www.w3.org/2000/svg" style="width: 26px; height: 26px; margin-left: 20px; margin-top: 20px;">
    <path d="M40 78c20.987 0 38-17.013 38-38S60.987 2 40 2 2 19.013 2 40s17.013 38 38 38z" fill="#000" fill-opacity=".06"></path>
    <g filter="url(#c155)">
        <path fill-rule="evenodd" clip-rule="evenodd" d="M40 78C19.013 78 2 60.987 2 40S19.013 2 40 2s38 17.013 38 38-17.013 38-38 38zm0-2.754c19.466 0 35.246-15.78 35.246-35.246S59.466 4.754 40 4.754 4.754 20.534 4.754 40 20.534 75.246 40 75.246zm-9.81-50.544V54.25h10.777c3.314 0 5.861-.744 7.64-2.232 1.78-1.489 2.669-3.62 2.669-6.393 0-1.678-.436-3.115-1.309-4.313-.873-1.197-2.107-2.012-3.704-2.445 1.407-.595 2.476-1.434 3.207-2.517.73-1.082 1.096-2.3 1.096-3.652 0-2.652-.873-4.648-2.618-5.987-1.745-1.34-4.289-2.01-7.63-2.01H30.19zm5.135 25.449v-9.234h6.129c3.139.067 4.708 1.637 4.708 4.708 0 1.42-.453 2.53-1.36 3.328-.906.798-2.164 1.198-3.774 1.198h-5.703zm0-13.009h5.033c1.596 0 2.844-.362 3.744-1.086.9-.724 1.35-1.748 1.35-3.074 0-1.462-.416-2.517-1.248-3.166-.833-.65-2.128-.974-3.887-.974h-4.992v8.3z" fill="#fff"></path>
    </g>
    <defs>
        <filter id="c155" x="0" y="0" width="84" height="84" filterUnits="userSpaceOnUse" color-interpolation-filters="sRGB">
            <feFlood flood-opacity="0" result="BackgroundImageFix"></feFlood>
            <feColorMatrix in="SourceAlpha" values="0 0 0 0 0 0 0 0 0 0 0 0 0 0 0 0 0 0 127 0"></feColorMatrix>
            <feOffset dx="2" dy="2"></feOffset>
            <feGaussianBlur stdDeviation="2"></feGaussianBlur>
            <feColorMatrix values="0 0 0 0 0 0 0 0 0 0 0 0 0 0 0 0 0 0 0.5 0"></feColorMatrix>
            <feBlend in2="BackgroundImageFix" result="effect1_dropShadow"></feBlend>
            <feBlend in="SourceGraphic" in2="effect1_dropShadow" result="shape"></feBlend>
        </filter>
    </defs>
</svg>
