<svg class="xduoyf" width="84" height="84" viewBox="0 0 84 84" fill="none" xmlns="http://www.w3.org/2000/svg" style="width: 26px; height: 26px; margin-left: 20px; margin-top: 20px;"><path d="M40 78c20.987 0 38-17.013 38-38S60.987 2 40 2 2 19.013 2 40s17.013 38 38 38z" fill="#000" fill-opacity=".06"></path><g filter="url(#c85)"><path fill-rule="evenodd" clip-rule="evenodd" d="M2 40c0 20.987 17.013 38 38 38s38-17.013 38-38S60.987 2 40 2 2 19.013 2 40zm73.246 0c0 19.466-15.78 35.246-35.246 35.246S4.754 59.466 4.754 40 20.534 4.754 40 4.754 75.246 20.534 75.246 40zM22.781 26.674v7.784h3.893v-7.784h7.784V22.78h-7.784a3.904 3.904 0 0 0-3.893 3.893zm0 19.461h3.893v7.785h7.784v3.892h-7.784a3.904 3.904 0 0 1-3.893-3.892v-7.785zm31.14 7.785h-7.786v3.892h7.785a3.904 3.904 0 0 0 3.892-3.892v-7.785H53.92v7.785zm-7.786-31.139h7.785a3.904 3.904 0 0 1 3.892 3.893v7.784H53.92v-7.784h-7.785V22.78z" fill="#fff"></path></g><defs><filter id="c85" x="0" y="0" width="84" height="84" filterUnits="userSpaceOnUse" color-interpolation-filters="sRGB"><feFlood flood-opacity="0" result="BackgroundImageFix"></feFlood><feColorMatrix in="SourceAlpha" values="0 0 0 0 0 0 0 0 0 0 0 0 0 0 0 0 0 0 127 0"></feColorMatrix><feOffset dx="2" dy="2"></feOffset><feGaussianBlur stdDeviation="2"></feGaussianBlur><feColorMatrix values="0 0 0 0 0 0 0 0 0 0 0 0 0 0 0 0 0 0 0.5 0"></feColorMatrix><feBlend in2="BackgroundImageFix" result="effect1_dropShadow"></feBlend><feBlend in="SourceGraphic" in2="effect1_dropShadow" result="shape"></feBlend></filter></defs></svg>
