<?xml version="1.0" encoding="UTF-8"?>
<svg width="95" height="95" viewBox="0 0 95 95" fill="none" xmlns="http://www.w3.org/2000/svg" style="width: 26px; height: 26px; margin-left: 20px; margin-top: 20px;">
    <circle cx="46" cy="46" r="41" fill="#000" fill-opacity=".06"></circle>
    <g filter="url(#c153)">
        <path fill-rule="evenodd" clip-rule="evenodd" d="M45.5 89C21.51 89 2 69.563 2 45.5S21.51 2 45.5 2 89 21.437 89 45.5 69.49 89 45.5 89zm0-3.398c22.147 0 40.102-17.955 40.102-40.102 0-22.148-17.955-40.102-40.102-40.102-22.148 0-40.102 17.954-40.102 40.102 0 22.147 17.954 40.102 40.102 40.102zm0-4.079c-19.866 0-36.023-16.096-36.023-36.023 0-19.927 16.157-36.023 36.023-36.023 19.866 0 36.023 16.096 36.023 36.023 0 19.927-16.157 36.023-36.023 36.023zm0-2.814c18.34 0 33.209-14.868 33.209-33.209 0-18.34-14.868-33.21-33.209-33.21-18.34 0-33.21 14.87-33.21 33.21 0 18.34 14.87 33.209 33.21 33.209zM33.023 54.15H44.82v3.583H28.508V31.906h4.515v22.245zm22.233-11.348H52.55v3.49h2.616c1.634 0 2.866.375 3.695 1.126.83.751 1.244 1.824 1.244 3.217 0 1.381-.396 2.435-1.189 3.162-.793.727-1.878 1.09-3.256 1.09-1.33 0-2.388-.363-3.174-1.09-.787-.727-1.18-1.672-1.18-2.835H46.86c0 2.254.817 4.059 2.452 5.416 1.634 1.357 3.732 2.035 6.293 2.035 2.67 0 4.826-.703 6.467-2.108 1.64-1.405 2.46-3.295 2.46-5.67 0-1.478-.38-2.75-1.143-3.817-.762-1.066-1.875-1.847-3.339-2.344a7.16 7.16 0 0 0 2.955-2.372c.762-1.048 1.143-2.165 1.143-3.353 0-2.362-.76-4.207-2.278-5.533-1.518-1.327-3.606-1.99-6.265-1.99-1.61 0-3.064.311-4.363.936-1.3.623-2.311 1.493-3.037 2.607a6.652 6.652 0 0 0-1.089 3.708h4.446c0-1.103.384-1.996 1.152-2.68.769-.685 1.75-1.028 2.946-1.028 1.366 0 2.381.349 3.046 1.045.664.697.997 1.675.997 2.935 0 1.309-.4 2.308-1.199 2.999-.798.69-1.88 1.042-3.247 1.054z" fill="#fff"></path>
    </g>
    <defs>
        <filter id="c153" x="0" y="0" width="95" height="95" filterUnits="userSpaceOnUse" color-interpolation-filters="sRGB">
            <feFlood flood-opacity="0" result="BackgroundImageFix"></feFlood>
            <feColorMatrix in="SourceAlpha" values="0 0 0 0 0 0 0 0 0 0 0 0 0 0 0 0 0 0 127 0"></feColorMatrix>
            <feOffset dx="2" dy="2"></feOffset>
            <feGaussianBlur stdDeviation="2"></feGaussianBlur>
            <feColorMatrix values="0 0 0 0 0 0 0 0 0 0 0 0 0 0 0 0 0 0 0.5 0"></feColorMatrix>
            <feBlend in2="BackgroundImageFix" result="effect1_dropShadow"></feBlend>
            <feBlend in="SourceGraphic" in2="effect1_dropShadow" result="shape"></feBlend>
        </filter>
    </defs>
</svg>
