<svg width="84" height="84" viewBox="0 0 84 84" fill="none" xmlns="http://www.w3.org/2000/svg" style="width: 26px; height: 26px; margin-left: 20px; margin-top: 20px;"><g clip-path="url(#clip0)"><path d="M25.478 23C14.721 23 6 31.73 6 42.5S14.72 62 25.478 62h31.044C67.279 62 76 53.27 76 42.5S67.28 23 56.522 23H25.478z" fill="#000" fill-opacity=".06"></path><g filter="url(#c83)"><path fill-rule="evenodd" clip-rule="evenodd" d="M56.631 20H25.369C13.015 20 3 30.015 3 42.369s10.015 22.369 22.369 22.369h31.262C68.985 64.738 79 54.723 79 42.369S68.985 20 56.631 20zm-31.262 2.754c-10.833 0-19.615 8.782-19.615 19.615 0 10.833 8.782 19.615 19.615 19.615h31.262c10.833 0 19.615-8.782 19.615-19.615 0-10.833-8.782-19.615-19.615-19.615H25.369zm2.452 15.324a4.304 4.304 0 0 0-4.291 4.291c0 2.36 1.931 4.29 4.29 4.29 2.36 0 4.292-1.93 4.292-4.29 0-2.36-1.931-4.29-4.291-4.29zm26.665 0a4.304 4.304 0 0 0-4.291 4.291c0 2.36 1.93 4.29 4.29 4.29 2.36 0 4.291-1.93 4.291-4.29 0-2.36-1.93-4.29-4.29-4.29zM36.709 42.37c0-2.36 1.931-4.29 4.291-4.29 2.36 0 4.29 1.93 4.29 4.29 0 2.36-1.93 4.29-4.29 4.29-2.36 0-4.29-1.93-4.29-4.29z" fill="#fff"></path></g></g><defs><filter id="c83" x="1" y="18" width="84" height="52.738" filterUnits="userSpaceOnUse" color-interpolation-filters="sRGB"><feFlood flood-opacity="0" result="BackgroundImageFix"></feFlood><feColorMatrix in="SourceAlpha" values="0 0 0 0 0 0 0 0 0 0 0 0 0 0 0 0 0 0 127 0"></feColorMatrix><feOffset dx="2" dy="2"></feOffset><feGaussianBlur stdDeviation="2"></feGaussianBlur><feColorMatrix values="0 0 0 0 0 0 0 0 0 0 0 0 0 0 0 0 0 0 0.5 0"></feColorMatrix><feBlend in2="BackgroundImageFix" result="effect1_dropShadow"></feBlend><feBlend in="SourceGraphic" in2="effect1_dropShadow" result="shape"></feBlend></filter><clipPath id="clip0"><path fill="#fff" d="M0 0h84v84H0z"></path></clipPath></defs></svg>
