<?xml version="1.0" encoding="UTF-8"?>
<svg width="95" height="95" viewBox="0 0 95 95" fill="none" xmlns="http://www.w3.org/2000/svg" style="width: 26px; height: 26px; margin-left: 20px; margin-top: 20px;">
    <circle cx="45" cy="45" r="41" fill="#000" fill-opacity=".06"></circle>
    <g filter="url(#c159)">
        <path fill-rule="evenodd" clip-rule="evenodd" d="M45.5 89C21.51 89 2 69.563 2 45.5S21.51 2 45.5 2 89 21.437 89 45.5 69.49 89 45.5 89zm0-3.398c22.147 0 40.102-17.955 40.102-40.102 0-22.148-17.955-40.102-40.102-40.102-22.148 0-40.102 17.954-40.102 40.102 0 22.147 17.954 40.102 40.102 40.102zm0-4.079c-19.866 0-36.023-16.096-36.023-36.023 0-19.927 16.157-36.023 36.023-36.023 19.866 0 36.023 16.096 36.023 36.023 0 19.927-16.157 36.023-36.023 36.023zm0-2.814c18.34 0 33.209-14.868 33.209-33.209 0-18.34-14.868-33.21-33.209-33.21-18.34 0-33.21 14.87-33.21 33.21 0 18.34 14.87 33.209 33.21 33.209zm7.049-35.906h2.707c1.366-.012 2.449-.363 3.247-1.054.8-.69 1.199-1.69 1.199-2.999 0-1.26-.333-2.238-.997-2.935-.665-.696-1.68-1.045-3.046-1.045-1.195 0-2.177.343-2.946 1.027-.768.685-1.152 1.578-1.152 2.68h-4.446c0-1.356.363-2.592 1.089-3.707.726-1.114 1.738-1.984 3.037-2.608 1.299-.623 2.753-.935 4.363-.935 2.659 0 4.747.663 6.266 1.99 1.518 1.326 2.277 3.17 2.277 5.533 0 1.188-.381 2.305-1.143 3.353a7.16 7.16 0 0 1-2.955 2.372c1.464.497 2.577 1.278 3.339 2.344.762 1.067 1.143 2.339 1.143 3.817 0 2.374-.82 4.265-2.46 5.67-1.64 1.405-3.796 2.108-6.467 2.108-2.561 0-4.659-.678-6.293-2.035-1.635-1.357-2.452-3.162-2.452-5.416h4.446c0 1.163.393 2.108 1.18 2.835.786.727 1.844 1.09 3.174 1.09 1.378 0 2.463-.363 3.256-1.09.793-.727 1.19-1.781 1.19-3.162 0-1.394-.415-2.466-1.245-3.217-.83-.751-2.06-1.127-3.695-1.127h-2.616v-3.489zm-17.124 5.15H30.27v10.255h-4.625V31.592h9.36c3.07 0 5.44.689 7.11 2.066 1.67 1.377 2.505 3.37 2.505 5.977 0 1.78-.43 3.27-1.29 4.47-.858 1.2-2.055 2.123-3.591 2.77l5.978 11.095v.238h-4.954l-5.338-10.255zm-5.155-3.711h4.753c1.56 0 2.778-.393 3.656-1.18.877-.785 1.316-1.86 1.316-3.226 0-1.425-.405-2.528-1.216-3.308-.81-.78-2.02-1.182-3.628-1.207H30.27v8.92z" fill="#fff"></path>
    </g>
    <defs>
        <filter id="c159" x="0" y="0" width="95" height="95" filterUnits="userSpaceOnUse" color-interpolation-filters="sRGB">
            <feFlood flood-opacity="0" result="BackgroundImageFix"></feFlood>
            <feColorMatrix in="SourceAlpha" values="0 0 0 0 0 0 0 0 0 0 0 0 0 0 0 0 0 0 127 0"></feColorMatrix>
            <feOffset dx="2" dy="2"></feOffset>
            <feGaussianBlur stdDeviation="2"></feGaussianBlur>
            <feColorMatrix values="0 0 0 0 0 0 0 0 0 0 0 0 0 0 0 0 0 0 0.5 0"></feColorMatrix>
            <feBlend in2="BackgroundImageFix" result="effect1_dropShadow"></feBlend>
            <feBlend in="SourceGraphic" in2="effect1_dropShadow" result="shape"></feBlend>
        </filter>
    </defs>
</svg>
